<?xml version="1.0" encoding="UTF-8"?>
<svg width="76px" height="24px" viewBox="0 0 76 24" version="1.1" xmlns="http://www.w3.org/2000/svg" xmlns:xlink="http://www.w3.org/1999/xlink">
    <!-- Generator: Sketch 42 (36781) - http://www.bohemiancoding.com/sketch -->
    <title>Artboard</title>
    <desc>Created with Sketch.</desc>
    <defs></defs>
    <g id="Page-1" stroke="none" stroke-width="1" fill="none" fill-rule="evenodd">
        <g id="Artboard" fill="#FFFFFF">
            <path d="M2.55664062,18.5820312 C1.40038484,17.433588 0.822265625,15.970712 0.822265625,14.1933594 C0.822265625,12.4160067 1.40038484,10.9589901 2.55664062,9.82226562 C3.71289641,8.68554119 5.18163172,8.1171875 6.96289062,8.1171875 C9.00977586,8.1171875 10.5371043,8.81249305 11.5449219,10.203125 L9.55273437,12.078125 C8.99023156,11.2499959 8.17383348,10.8359375 7.10351562,10.8359375 C6.17382348,10.8359375 5.41797166,11.1425751 4.8359375,11.7558594 C4.25390334,12.3691437 3.96289062,13.1796825 3.96289062,14.1875 C3.96289062,15.1953175 4.25390334,16.0117156 4.8359375,16.6367188 C5.41797166,17.2617219 6.17382348,17.5742188 7.10351562,17.5742188 C8.14258332,17.5742188 8.95898141,17.152348 9.55273437,16.3085938 L11.5449219,18.171875 C10.5214793,19.578132 8.99415078,20.2851562 6.96289062,20.2929688 C5.18944426,20.2929688 3.72070895,19.722662 2.55664062,18.5820312 Z M13.5253906,20 L13.5253906,8.41015625 L16.5722656,8.41015625 L16.5722656,9.96875 C17.0175804,9.43749734 17.5722623,8.99609551 18.2363281,8.64453125 C18.9003939,8.29296699 19.5800746,8.1171875 20.2753906,8.1171875 L20.2753906,11.09375 C20.048827,11.0468748 19.7675798,11.0234375 19.4316406,11.0234375 C18.916013,11.0234375 18.3710966,11.1523425 17.796875,11.4101562 C17.2226534,11.66797 16.8144543,11.9804669 16.5722656,12.3476562 L16.5722656,20 L13.5253906,20 Z M21.4238281,14.1875 C21.4238281,12.492179 21.9902287,11.0566465 23.1230469,9.88085938 C24.255865,8.70507225 25.6874913,8.1171875 27.4179688,8.1171875 C29.1484462,8.1171875 30.5488228,8.70507225 31.6191406,9.88085938 C32.6894585,11.0566465 33.2246094,12.5898343 33.2246094,14.4804688 L33.2246094,15.1953125 L24.6113281,15.1953125 C24.7207037,15.9453163 25.0683564,16.5664038 25.6542969,17.0585938 C26.2402373,17.5507837 27.0058546,17.796875 27.9511719,17.796875 C28.4824245,17.796875 29.0390596,17.6953135 29.6210938,17.4921875 C30.2031279,17.2890615 30.6699201,17.0117205 31.0214844,16.6601562 L32.3808594,18.6757812 C31.2089785,19.7460991 29.6191507,20.2851562 27.6113281,20.2929688 C25.8222567,20.2929688 24.3437558,19.7304744 23.1757812,18.6054688 C22.0078067,17.4804631 21.4238281,16.0078216 21.4238281,14.1875 Z M24.5878906,13.0859375 L30.2949219,13.0859375 C30.2324216,12.4296842 29.9648461,11.8535181 29.4921875,11.3574219 C29.0195289,10.8613256 28.3300827,10.6132812 27.4238281,10.6132812 C26.5410112,10.6132812 25.8632836,10.8574194 25.390625,11.3457031 C24.9179664,11.8339868 24.6503909,12.4140591 24.5878906,13.0859375 Z M34.6894531,14.1875 C34.6894531,12.3281157 35.167964,10.851568 36.125,9.7578125 C37.082036,8.66405703 38.3144456,8.1171875 39.8222656,8.1171875 C41.306648,8.1171875 42.4980424,8.71093156 43.3964844,9.8984375 L43.3964844,3.9921875 L46.4667969,3.9921875 L46.4667969,20 L43.3964844,20 L43.3964844,18.5117188 C42.4511671,19.6992247 41.2597728,20.2929688 39.8222656,20.2929688 C38.3144456,20.2929688 37.082036,19.7480523 36.125,18.6582031 C35.167964,17.5683539 34.6894531,16.0781345 34.6894531,14.1875 Z M37.8300781,14.1875 C37.8300781,15.1953175 38.1015598,16.0117156 38.6445312,16.6367188 C39.1875027,17.2617219 39.9003862,17.5742188 40.7832031,17.5742188 C41.2988307,17.5742188 41.7988257,17.4511731 42.2832031,17.2050781 C42.7675805,16.9589831 43.1386706,16.6445332 43.3964844,16.2617188 L43.3964844,12.1484375 C43.1386706,11.7656231 42.7656274,11.4511731 42.2773438,11.2050781 C41.7890601,10.9589831 41.2910182,10.8359375 40.7832031,10.8359375 C39.9003862,10.8359375 39.1875027,11.1464813 38.6445312,11.7675781 C38.1015598,12.388675 37.8300781,13.1953075 37.8300781,14.1875 Z M49.7246094,6.6171875 C49.3730451,6.2578107 49.1972656,5.83008061 49.1972656,5.33398438 C49.1972656,4.83788814 49.3749982,4.41406426 49.7304688,4.0625 C50.0859393,3.71093574 50.5097632,3.53515625 51.0019531,3.53515625 C51.5175807,3.53515625 51.9511701,3.71093574 52.3027344,4.0625 C52.6542986,4.41406426 52.8300781,4.83788814 52.8300781,5.33398438 C52.8300781,5.83008061 52.6542986,6.2578107 52.3027344,6.6171875 C51.9511701,6.9765643 51.5175807,7.15625 51.0019531,7.15625 C50.5097632,7.15625 50.0839862,6.9765643 49.7246094,6.6171875 Z M49.4902344,20 L49.4902344,8.41015625 L52.5371094,8.41015625 L52.5371094,20 L49.4902344,20 Z M54.2597656,11.0703125 L54.2597656,8.41015625 L56.1816406,8.41015625 L56.1816406,5.234375 L59.2285156,5.234375 L59.2285156,8.41015625 L61.5839844,8.41015625 L61.5839844,11.0703125 L59.2285156,11.0703125 L59.2285156,16.2851562 C59.2285156,16.6679707 59.3203116,16.9785144 59.5039062,17.2167969 C59.6875009,17.4550793 59.9472639,17.5742188 60.2832031,17.5742188 C60.7753931,17.5742188 61.1308583,17.4531262 61.3496094,17.2109375 L61.9941406,19.5429688 C61.4316378,20.0351587 60.58399,20.2851562 59.4511719,20.2929688 C57.2714735,20.2929688 56.1816406,19.2265732 56.1816406,17.09375 L56.1816406,11.0703125 L54.2597656,11.0703125 Z M64.5957031,18.5351562 C63.4863226,17.3554629 62.9316406,15.9082117 62.9316406,14.1933594 C62.9316406,12.4785071 63.4863226,11.0371152 64.5957031,9.86914062 C65.7050837,8.70116604 67.1874907,8.1171875 69.0429688,8.1171875 C70.8984468,8.1171875 72.3867131,8.70116604 73.5078125,9.86914062 C74.6289119,11.0371152 75.1894531,12.4785071 75.1894531,14.1933594 C75.1894531,15.9082117 74.6289119,17.3535097 73.5078125,18.5292969 C72.3867131,19.705084 70.8984468,20.2929688 69.0429688,20.2929688 C67.1874907,20.2929688 65.7050837,19.7070371 64.5957031,18.5351562 Z M66.0957031,14.1875 C66.0957031,15.1484423 66.3593724,15.9531218 66.8867188,16.6015625 C67.4140651,17.2500032 68.1347611,17.5742188 69.0488281,17.5742188 C69.9785203,17.5742188 70.7070286,17.2500032 71.234375,16.6015625 C71.7617214,15.9531218 72.0253906,15.1484423 72.0253906,14.1875 C72.0253906,13.2421828 71.7617214,12.4472688 71.234375,11.8027344 C70.7070286,11.1581999 69.9785203,10.8359375 69.0488281,10.8359375 C68.1347611,10.8359375 67.4140651,11.1581999 66.8867188,11.8027344 C66.3593724,12.4472688 66.0957031,13.2421828 66.0957031,14.1875 Z" id="credito"></path>
        </g>
    </g>
</svg>